<mxfile host="app.diagrams.net" modified="2023-12-11T08:10:15.163Z" agent="Mozilla/5.0 (Windows NT 10.0; Win64; x64) AppleWebKit/537.36 (KHTML, like Gecko) Chrome/120.0.0.0 Safari/537.36 Edg/120.0.0.0" etag="MliCwBNXmxbcBNtxcz2Y" version="22.1.7" type="github">
  <diagram name="Page-1" id="UsD2tdXxrjtJY4Dk9u5Q">
    <mxGraphModel dx="295" dy="790" grid="0" gridSize="10" guides="1" tooltips="1" connect="1" arrows="1" fold="1" page="0" pageScale="1" pageWidth="850" pageHeight="1100" math="0" shadow="0">
      <root>
        <mxCell id="0" />
        <mxCell id="1" parent="0" />
        <mxCell id="0XpzgoV9gYSaIJxvjMoS-2" value="User&lt;br&gt;" style="shape=umlActor;verticalLabelPosition=bottom;verticalAlign=top;html=1;outlineConnect=0;fontSize=16;" vertex="1" parent="1">
          <mxGeometry x="502" y="-148" width="30" height="60" as="geometry" />
        </mxCell>
        <mxCell id="0XpzgoV9gYSaIJxvjMoS-31" value="" style="endArrow=none;dashed=1;html=1;dashPattern=1 3;strokeWidth=2;rounded=0;fontSize=12;startSize=8;endSize=8;curved=1;" edge="1" parent="1">
          <mxGeometry width="50" height="50" relative="1" as="geometry">
            <mxPoint x="543" y="-88" as="sourcePoint" />
            <mxPoint x="1076" y="-86" as="targetPoint" />
          </mxGeometry>
        </mxCell>
        <mxCell id="0XpzgoV9gYSaIJxvjMoS-32" value="" style="endArrow=none;dashed=1;html=1;dashPattern=1 3;strokeWidth=2;rounded=0;fontSize=12;startSize=8;endSize=8;curved=1;" edge="1" parent="1">
          <mxGeometry width="50" height="50" relative="1" as="geometry">
            <mxPoint x="518" y="-60" as="sourcePoint" />
            <mxPoint x="516" y="519" as="targetPoint" />
          </mxGeometry>
        </mxCell>
        <mxCell id="0XpzgoV9gYSaIJxvjMoS-55" style="edgeStyle=none;curved=1;rounded=0;orthogonalLoop=1;jettySize=auto;html=1;exitX=0.5;exitY=1;exitDx=0;exitDy=0;entryX=0.5;entryY=0;entryDx=0;entryDy=0;fontSize=12;startSize=8;endSize=8;" edge="1" parent="1" source="0XpzgoV9gYSaIJxvjMoS-33" target="0XpzgoV9gYSaIJxvjMoS-52">
          <mxGeometry relative="1" as="geometry" />
        </mxCell>
        <mxCell id="0XpzgoV9gYSaIJxvjMoS-56" style="edgeStyle=none;curved=1;rounded=0;orthogonalLoop=1;jettySize=auto;html=1;exitX=0.5;exitY=1;exitDx=0;exitDy=0;entryX=0.5;entryY=0;entryDx=0;entryDy=0;fontSize=12;startSize=8;endSize=8;" edge="1" parent="1" source="0XpzgoV9gYSaIJxvjMoS-33" target="0XpzgoV9gYSaIJxvjMoS-53">
          <mxGeometry relative="1" as="geometry" />
        </mxCell>
        <mxCell id="0XpzgoV9gYSaIJxvjMoS-33" value="Đăng nhập" style="rounded=1;whiteSpace=wrap;html=1;fontSize=16;" vertex="1" parent="1">
          <mxGeometry x="575" y="-59" width="131" height="30" as="geometry" />
        </mxCell>
        <mxCell id="0XpzgoV9gYSaIJxvjMoS-34" value="&lt;font style=&quot;font-size: 12px;&quot;&gt;Chưa có tài khoản? Đăng ký&lt;/font&gt;" style="text;html=1;align=center;verticalAlign=middle;resizable=0;points=[];autosize=1;strokeColor=none;fillColor=none;fontSize=16;" vertex="1" parent="1">
          <mxGeometry x="672" y="-116" width="170" height="31" as="geometry" />
        </mxCell>
        <mxCell id="0XpzgoV9gYSaIJxvjMoS-39" style="edgeStyle=none;curved=1;rounded=0;orthogonalLoop=1;jettySize=auto;html=1;entryX=0.5;entryY=0;entryDx=0;entryDy=0;fontSize=12;startSize=8;endSize=8;exitX=0.5;exitY=1;exitDx=0;exitDy=0;" edge="1" parent="1" source="0XpzgoV9gYSaIJxvjMoS-35" target="0XpzgoV9gYSaIJxvjMoS-36">
          <mxGeometry relative="1" as="geometry">
            <mxPoint x="908" y="-3" as="sourcePoint" />
          </mxGeometry>
        </mxCell>
        <mxCell id="0XpzgoV9gYSaIJxvjMoS-40" style="edgeStyle=none;curved=1;rounded=0;orthogonalLoop=1;jettySize=auto;html=1;exitX=0.5;exitY=1;exitDx=0;exitDy=0;entryX=0.5;entryY=0;entryDx=0;entryDy=0;fontSize=12;startSize=8;endSize=8;" edge="1" parent="1" source="0XpzgoV9gYSaIJxvjMoS-35" target="0XpzgoV9gYSaIJxvjMoS-37">
          <mxGeometry relative="1" as="geometry" />
        </mxCell>
        <mxCell id="0XpzgoV9gYSaIJxvjMoS-35" value="Đăng ký" style="rounded=1;whiteSpace=wrap;html=1;fontSize=16;" vertex="1" parent="1">
          <mxGeometry x="842" y="-59" width="131" height="30" as="geometry" />
        </mxCell>
        <mxCell id="0XpzgoV9gYSaIJxvjMoS-45" style="edgeStyle=none;curved=1;rounded=0;orthogonalLoop=1;jettySize=auto;html=1;exitX=0.5;exitY=1;exitDx=0;exitDy=0;entryX=0.5;entryY=0;entryDx=0;entryDy=0;fontSize=12;startSize=8;endSize=8;" edge="1" parent="1" source="0XpzgoV9gYSaIJxvjMoS-36" target="0XpzgoV9gYSaIJxvjMoS-43">
          <mxGeometry relative="1" as="geometry" />
        </mxCell>
        <mxCell id="0XpzgoV9gYSaIJxvjMoS-36" value="Email" style="ellipse;whiteSpace=wrap;html=1;fontSize=16;" vertex="1" parent="1">
          <mxGeometry x="799" y="-3" width="83" height="26" as="geometry" />
        </mxCell>
        <mxCell id="0XpzgoV9gYSaIJxvjMoS-42" style="edgeStyle=none;curved=1;rounded=0;orthogonalLoop=1;jettySize=auto;html=1;exitX=0.5;exitY=1;exitDx=0;exitDy=0;entryX=0.5;entryY=0;entryDx=0;entryDy=0;fontSize=12;startSize=8;endSize=8;" edge="1" parent="1" source="0XpzgoV9gYSaIJxvjMoS-37" target="0XpzgoV9gYSaIJxvjMoS-41">
          <mxGeometry relative="1" as="geometry" />
        </mxCell>
        <mxCell id="0XpzgoV9gYSaIJxvjMoS-37" value="Mật khẩu" style="ellipse;whiteSpace=wrap;html=1;fontSize=16;" vertex="1" parent="1">
          <mxGeometry x="933" y="-3" width="83" height="26" as="geometry" />
        </mxCell>
        <mxCell id="0XpzgoV9gYSaIJxvjMoS-44" value="" style="edgeStyle=none;curved=1;rounded=0;orthogonalLoop=1;jettySize=auto;html=1;fontSize=12;startSize=8;endSize=8;entryX=0.5;entryY=0;entryDx=0;entryDy=0;" edge="1" parent="1" source="0XpzgoV9gYSaIJxvjMoS-41" target="0XpzgoV9gYSaIJxvjMoS-43">
          <mxGeometry relative="1" as="geometry">
            <mxPoint x="908" y="135" as="targetPoint" />
          </mxGeometry>
        </mxCell>
        <mxCell id="0XpzgoV9gYSaIJxvjMoS-41" value="Xác nhận mật khẩu" style="ellipse;whiteSpace=wrap;html=1;fontSize=16;" vertex="1" parent="1">
          <mxGeometry x="894.5" y="60" width="160" height="38" as="geometry" />
        </mxCell>
        <mxCell id="0XpzgoV9gYSaIJxvjMoS-47" style="edgeStyle=none;curved=1;rounded=0;orthogonalLoop=1;jettySize=auto;html=1;entryX=0.5;entryY=0;entryDx=0;entryDy=0;fontSize=12;startSize=8;endSize=8;" edge="1" parent="1" source="0XpzgoV9gYSaIJxvjMoS-43" target="0XpzgoV9gYSaIJxvjMoS-46">
          <mxGeometry relative="1" as="geometry" />
        </mxCell>
        <mxCell id="0XpzgoV9gYSaIJxvjMoS-43" value="Đăng ký thành công" style="ellipse;whiteSpace=wrap;html=1;fontSize=16;" vertex="1" parent="1">
          <mxGeometry x="867.5" y="138" width="80" height="80" as="geometry" />
        </mxCell>
        <mxCell id="0XpzgoV9gYSaIJxvjMoS-54" style="edgeStyle=none;curved=1;rounded=0;orthogonalLoop=1;jettySize=auto;html=1;exitX=0;exitY=0.5;exitDx=0;exitDy=0;entryX=1;entryY=0.5;entryDx=0;entryDy=0;fontSize=12;startSize=8;endSize=8;" edge="1" parent="1" source="0XpzgoV9gYSaIJxvjMoS-46" target="0XpzgoV9gYSaIJxvjMoS-33">
          <mxGeometry relative="1" as="geometry">
            <Array as="points">
              <mxPoint x="832" y="60" />
            </Array>
          </mxGeometry>
        </mxCell>
        <mxCell id="0XpzgoV9gYSaIJxvjMoS-46" value="Lưu trữ dữ liệu, thông tin tài khoản" style="rounded=1;whiteSpace=wrap;html=1;fontSize=16;" vertex="1" parent="1">
          <mxGeometry x="825.5" y="241" width="164" height="48" as="geometry" />
        </mxCell>
        <mxCell id="0XpzgoV9gYSaIJxvjMoS-58" style="edgeStyle=none;curved=1;rounded=0;orthogonalLoop=1;jettySize=auto;html=1;exitX=0.5;exitY=1;exitDx=0;exitDy=0;entryX=0.5;entryY=0;entryDx=0;entryDy=0;fontSize=12;startSize=8;endSize=8;" edge="1" parent="1" source="0XpzgoV9gYSaIJxvjMoS-52" target="0XpzgoV9gYSaIJxvjMoS-57">
          <mxGeometry relative="1" as="geometry" />
        </mxCell>
        <mxCell id="0XpzgoV9gYSaIJxvjMoS-52" value="Email" style="ellipse;whiteSpace=wrap;html=1;fontSize=16;" vertex="1" parent="1">
          <mxGeometry x="532" y="-3" width="83" height="26" as="geometry" />
        </mxCell>
        <mxCell id="0XpzgoV9gYSaIJxvjMoS-59" style="edgeStyle=none;curved=1;rounded=0;orthogonalLoop=1;jettySize=auto;html=1;exitX=0.5;exitY=1;exitDx=0;exitDy=0;entryX=0.5;entryY=0;entryDx=0;entryDy=0;fontSize=12;startSize=8;endSize=8;" edge="1" parent="1" source="0XpzgoV9gYSaIJxvjMoS-53" target="0XpzgoV9gYSaIJxvjMoS-57">
          <mxGeometry relative="1" as="geometry" />
        </mxCell>
        <mxCell id="0XpzgoV9gYSaIJxvjMoS-53" value="Mật khẩu" style="ellipse;whiteSpace=wrap;html=1;fontSize=16;" vertex="1" parent="1">
          <mxGeometry x="665" y="-3" width="83" height="26" as="geometry" />
        </mxCell>
        <mxCell id="0XpzgoV9gYSaIJxvjMoS-63" style="edgeStyle=none;curved=1;rounded=0;orthogonalLoop=1;jettySize=auto;html=1;exitX=0.5;exitY=1;exitDx=0;exitDy=0;entryX=0.5;entryY=0;entryDx=0;entryDy=0;fontSize=12;startSize=8;endSize=8;" edge="1" parent="1" source="0XpzgoV9gYSaIJxvjMoS-57" target="0XpzgoV9gYSaIJxvjMoS-61">
          <mxGeometry relative="1" as="geometry" />
        </mxCell>
        <mxCell id="0XpzgoV9gYSaIJxvjMoS-57" value="Đăng nhập thành công" style="ellipse;whiteSpace=wrap;html=1;aspect=fixed;fontSize=16;" vertex="1" parent="1">
          <mxGeometry x="600.5" y="51" width="80" height="80" as="geometry" />
        </mxCell>
        <mxCell id="0XpzgoV9gYSaIJxvjMoS-65" style="edgeStyle=none;curved=1;rounded=0;orthogonalLoop=1;jettySize=auto;html=1;exitX=0.5;exitY=1;exitDx=0;exitDy=0;entryX=0.5;entryY=0;entryDx=0;entryDy=0;fontSize=12;startSize=8;endSize=8;" edge="1" parent="1" source="0XpzgoV9gYSaIJxvjMoS-61" target="0XpzgoV9gYSaIJxvjMoS-64">
          <mxGeometry relative="1" as="geometry" />
        </mxCell>
        <mxCell id="0XpzgoV9gYSaIJxvjMoS-61" value="Giao diện trang chủ App" style="rounded=0;whiteSpace=wrap;html=1;fontSize=16;" vertex="1" parent="1">
          <mxGeometry x="580.5" y="148" width="120" height="60" as="geometry" />
        </mxCell>
        <mxCell id="0XpzgoV9gYSaIJxvjMoS-67" style="edgeStyle=none;curved=1;rounded=0;orthogonalLoop=1;jettySize=auto;html=1;exitX=0.5;exitY=1;exitDx=0;exitDy=0;entryX=0.5;entryY=0;entryDx=0;entryDy=0;fontSize=12;startSize=8;endSize=8;" edge="1" parent="1" source="0XpzgoV9gYSaIJxvjMoS-64" target="0XpzgoV9gYSaIJxvjMoS-66">
          <mxGeometry relative="1" as="geometry" />
        </mxCell>
        <mxCell id="0XpzgoV9gYSaIJxvjMoS-64" value="Chọn chủ đề môn hộc muốn kiểm tra" style="rounded=1;whiteSpace=wrap;html=1;fontSize=16;" vertex="1" parent="1">
          <mxGeometry x="580.5" y="229" width="120" height="60" as="geometry" />
        </mxCell>
        <mxCell id="0XpzgoV9gYSaIJxvjMoS-66" value="Bắt đầu tính thời gian và làm bài ktra" style="rounded=1;whiteSpace=wrap;html=1;fontSize=16;" vertex="1" parent="1">
          <mxGeometry x="580.5" y="310" width="120" height="60" as="geometry" />
        </mxCell>
      </root>
    </mxGraphModel>
  </diagram>
</mxfile>
